<?xml version="1.0" encoding="UTF-8"?>
<svg id="Layer_1" data-name="Layer 1" xmlns="http://www.w3.org/2000/svg" viewBox="0 0 750 133.85">
  <defs>
    <style>
      .cls-1 {
        fill: #eb5c0b;
      }

      .cls-2, .cls-3 {
        fill: #2b2d6c;
      }

      .cls-3 {
        fill-rule: evenodd;
      }
    </style>
  </defs>
  <g>
    <g>
      <path class="cls-2" d="m292.12,26.43l-26.03,79.21h-21.29l-26.03-79.21h18.93l18.21,60.9h.21l18.21-60.9h17.8Z"/>
      <path class="cls-2" d="m345.51,93.61v11.11c-2.57,1.23-6.89,1.96-10.49,1.96-5.35,0-9.57-3.4-10.6-8.54l-.21-.62c-3.81,5.56-11.42,9.16-19.24,9.16-10.29,0-17.18-5.97-17.18-14.81,0-14.4,13.17-15.84,35.8-20.88v-2.88c0-4.42-3.29-7.3-8.23-7.3-5.45,0-9.05,3.29-9.16,8.33l-15.64-1.03c.31-10.6,10.39-17.69,25.41-17.69s23.97,7.41,23.97,18.72v21.19c0,2.16,1.13,3.7,2.98,3.7.62,0,1.65-.21,2.57-.41Zm-21.91-9.16v-4.73c-11.11,2.57-19.75,4.01-19.75,10.19,0,3.39,2.88,5.66,7.2,5.66,7.72,0,12.55-4.84,12.55-11.11Z"/>
      <path class="cls-2" d="m353.64,90.93V26.43h17.08v63.58c0,2.26,1.65,3.7,4.01,3.7,1.23,0,2.78-.31,3.91-.72v11.62c-2.78,1.23-7.1,2.06-10.8,2.06-8.54,0-14.2-6.38-14.2-15.74Z"/>
      <path class="cls-2" d="m438.82,51.43v54.21h-17.08v-8.64h-.21c-3.19,5.76-10.29,9.67-18.11,9.67-10.29,0-17.18-7.92-17.18-19.75v-35.49h17.08v32.1c0,5.86,3.5,9.77,8.64,9.77,5.86,0,9.77-4.73,9.77-11.62v-30.25h17.08Z"/>
      <path class="cls-2" d="m505.68,81.26h-40.74c.72,8.13,4.94,13.48,12.24,13.48,5.86,0,10.7-3.5,12.04-8.64l16.05,1.85c-2.37,11.21-13.58,18.72-28.08,18.72-17.28,0-28.8-11.32-28.8-28.19s11.52-28.08,28.8-28.08,28.5,11.52,28.5,28.91v1.95Zm-40.33-7.92h23.35c-1.34-7.1-5.55-11.52-11.52-11.52s-10.49,4.42-11.83,11.52Z"/>
      <path class="cls-2" d="m533.56,40.22v19.13h31.58v13.58h-31.58v32.71h-17.8V26.43h55.04v13.78h-37.24Z"/>
      <path class="cls-2" d="m579.44,51.43h17.08v54.21h-17.08v-54.21Z"/>
      <path class="cls-2" d="m651.35,52.36l-3.81,15.33c-2.26-1.44-5.35-2.37-7.92-2.37-8.02,0-13.37,6.48-13.37,16.15v24.18h-17.08v-54.21h17.08v11.11h.21c2.47-7.3,8.95-12.14,16.25-12.14,2.67,0,6.17.72,8.64,1.95Z"/>
      <path class="cls-2" d="m653.2,89.49l15.84-1.34c.31,4.83,4.32,8.13,9.98,8.13s9.46-2.47,9.46-6.07c0-4.63-5.86-5.66-12.55-6.69-9.57-1.44-21.29-4.01-21.29-16.15,0-10.18,9.77-16.97,24.38-16.97s23.76,6.69,24.38,16.77l-15.74,1.13c-.41-4.63-3.81-7.61-8.64-7.61s-8.02,2.06-8.02,5.14c0,3.91,5.55,5.04,12.04,6.07,9.67,1.54,21.81,4.22,21.81,16.46,0,11.01-10.29,18.31-25.82,18.31-14.71,0-25.1-6.79-25.82-17.18Z"/>
      <path class="cls-2" d="m734.36,63.36v24.07c0,3.91,3.29,6.58,8.23,6.58,2.47,0,5.45-.62,7.41-1.65v11.73c-3.5,1.54-8.54,2.57-12.76,2.57-11.93,0-19.96-7.1-19.96-17.59v-25.72h-8.13v-10.9h1.13c7.72,0,10.9-4.83,12.65-16.56h11.42v15.53h15.64v11.93h-15.64Z"/>
    </g>
    <path class="cls-1" d="m598.04,35.23c0,5.68-4.61,10.29-10.29,10.29s-10.29-4.61-10.29-10.29,4.61-10.29,10.29-10.29,10.29,4.61,10.29,10.29"/>
  </g>
  <g>
    <path class="cls-3" d="m112.12,72.87l-1.98-11.21-5.1-28.92-1.97-11.16v-.04C100.84,8.93,89.77,0,77.38,0c-1.49,0-3,.13-4.51.4L21.54,9.45C7.42,11.94-2.09,25.52.4,39.64l9.05,51.33c2.49,14.12,16.08,23.63,30.19,21.14l22.91-4.04s-.05.11-.04.17l2.45,14.51c.04.23.33.29.46.11l12.46-17.47s0-.01,0-.01l13.09-2.31c14.12-2.49,23.63-16.08,21.14-30.19Zm-22.43,22.86l-51.33,9.05c-1.08.19-2.16.28-3.22.28h0c-8.85,0-16.76-6.38-18.34-15.38-7.67-43.51-1.38-7.82-9.05-51.34-1.78-10.08,5.02-19.79,15.1-21.57l51.34-9.05c10.08-1.78,19.79,5.02,21.57,15.1v.04s9.04,51.24,9.04,51.24v.05c1.79,10.08-5.01,19.79-15.09,21.57Z"/>
    <path class="cls-3" d="m91.25,50.32c-.44-2.48-2.8-4.14-5.28-3.7-2.48.44-4.14,2.8-3.7,5.28h0c2.45,13.92-6.87,27.23-20.79,29.69-13.92,2.45-27.23-6.87-29.69-20.79h0c-.44-2.48-2.8-4.14-5.28-3.7-2.48.44-4.14,2.8-3.7,5.28h0s.02.08.02.12c3.39,18.84,21.37,31.4,40.24,28.07,18.9-3.33,31.52-21.36,28.19-40.26h0Z"/>
  </g>
  <g>
    <path class="cls-1" d="m182.47,19.73l-51.56-7.66c-8.89-1.32-17.44,2.07-23.1,8.27l2.11,10.31c3.22-7.64,11.34-12.48,19.9-11.21l51.56,7.66c10.13,1.5,17.18,11.02,15.68,21.15-6.5,43.7-1.17,7.86-7.66,51.56-1.5,10.13-11.02,17.18-21.15,15.68l-51.56-7.66c-4.21-.63-7.9-2.64-10.65-5.51-1.92,1.59-4.03,2.98-6.3,4.12,3.94,4.57,9.46,7.8,15.86,8.75l13.62,2.02,11.42,16.49c.17.25.56.17.61-.13l2.64-13.93s0,0,0,0l.12.02.04-.24,23.11,3.44c14.18,2.11,27.5-7.77,29.61-21.95l7.66-51.56c1.21-14.83-9.69-28.9-21.95-29.61Z"/>
    <path class="cls-1" d="m125.07,64.94c.35-2.49-1.39-4.8-3.88-5.15-.22-.03-.43-.05-.64-.05-2.24,0-4.19,1.64-4.51,3.92h0c-2.69,19,10.54,36.59,29.55,39.27,18.96,2.68,36.51-10.49,39.26-29.43,0-.04.01-.08.02-.12h0c.35-2.49-1.39-4.8-3.88-5.16-2.49-.35-4.8,1.38-5.16,3.88h0c-1.98,13.99-14.97,23.77-28.96,21.79-13.99-1.98-23.77-14.97-21.79-28.96h0Z"/>
  </g>
</svg>