<?xml version="1.0" encoding="utf-8"?>
<!-- Generator: Adobe Illustrator 15.0.0, SVG Export Plug-In  -->
<!DOCTYPE svg PUBLIC "-//W3C//DTD SVG 1.1//EN" "http://www.w3.org/Graphics/SVG/1.1/DTD/svg11.dtd" [
	<!ENTITY ns_flows "http://ns.adobe.com/Flows/1.0/">
]>
<svg version="1.1"
	 xmlns="http://www.w3.org/2000/svg" xmlns:xlink="http://www.w3.org/1999/xlink" xmlns:a="http://ns.adobe.com/AdobeSVGViewerExtensions/3.0/"
	 x="0px" y="0px" width="140px" height="100px" viewBox="-0.953 -5.375 140 100" enable-background="new -0.953 -5.375 140 100"
	 xml:space="preserve">
<defs>
</defs>
<path fill="#005039" d="M49.53,15.919c5.529-0.46,11-0.412,16.274,1.448C84.482,4.912,98.399,1.374,111.162,0
	C93.709,5.538,78.828,13.405,66.766,23.829C60.897,20.072,55.142,17.363,49.53,15.919L49.53,15.919L49.53,15.919z"/>
<path fill="#005039" d="M23.68,44.265c0.322-1.377,1.102-4.133,1.102-5.511c0-2.427-1.654-2.559-2.618-2.623v-2.1
	c1.378,0.065,2.801,0.195,4.179,0.263c1.287-0.068,2.526-0.198,3.812-0.263v2.1c-1.194,0.328-1.837,1.181-2.572,2.688
	c-0.873,1.902-5.28,16.992-5.694,18.305l-2.021,6.1h-1.883l-7.347-23.092c-0.734-2.23-1.102-3.673-2.939-4.001v-2.1
	c1.974,0.065,3.903,0.195,5.878,0.263c1.928-0.068,3.903-0.198,5.832-0.263v2.1c-1.24,0.064-2.571,0.064-2.571,2.295
	c0,0.854,0.827,3.281,1.056,4.068l3.215,10.365L23.68,44.265L23.68,44.265z"/>
<path fill="#005039" d="M50.875,59.157c-0.965,2.559-3.583,4.067-5.512,4.067c-2.203,0-3.398-1.441-3.995-4.395
	c-1.653,2.491-4.086,4.395-6.475,4.395c-2.893,0-5.281-2.821-5.281-7.085c0-6.495,5.189-8.726,9.231-10.955
	c1.423-0.788,2.571-0.788,2.571-3.28c0-2.886-0.184-5.772-2.664-5.772c-1.745,0-2.25,1.049-2.892,3.28
	c-0.552,2.1-1.148,4.132-2.985,4.132c-1.424,0-2.48-1.442-2.48-3.542c0-5.576,6.016-6.495,8.863-6.495
	c3.949,0,8.173,1.444,8.173,8.135v13.317c0,1.116,0,3.345,0.966,3.345c0.734,0,1.055-0.327,1.561-0.918L50.875,59.157L50.875,59.157
	z M41.414,46.43c-2.296,1.443-5.328,3.214-5.328,7.414c0,2.099,0.597,4.459,2.251,4.459c1.376,0,3.076-1.9,3.076-4.067V46.43
	L41.414,46.43z"/>
<path fill="#005039" d="M59.863,37.428v16.349c0,2.559,0,5.213,1.653,5.213c1.147,0,2.066-1.014,2.708-2.26l1.562,1.509
	c-1.47,3.346-3.766,4.985-6.476,4.985c-4.5,0-5.465-3.739-5.465-9.447V37.445h-2.479v-2.167c3.347-1.498,5.603-4.789,6.521-9.578
	h1.975v8.922H64.5v2.806H59.863L59.863,37.428z"/>
<path fill="#005039" d="M92.03,50.168l-1.652,2.035v2.491c0,4.264-0.275,5.185,2.893,5.708v2.1
	c-1.837-0.064-3.627-0.196-5.465-0.263c-1.976,0.066-3.994,0.198-6.337,0.263v-2.1c3.261,0,2.893-2.36,2.893-6.1V28.062
	c0-3.608,0.186-5.577-2.938-5.905v-2.165l8.955-1.969v30.505l4.591-6.561c0.506-0.852,1.563-2.426,1.563-3.606
	c0-1.838-1.837-2.167-2.755-2.23v-2.1c1.79,0.065,3.628,0.195,5.417,0.263c1.516-0.068,3.078-0.198,4.594-0.263v2.1
	c-2.802,0.655-3.903,2.688-5.833,5.313l-2.204,3.019l6.247,11.611c0.78,1.509,1.744,3.869,3.122,4.328v2.1
	c-1.103-0.064-2.305-0.198-3.353-0.212c-1.175,0-2.25,0.147-3.397,0.212L92.03,50.168L92.03,50.168z"/>
<path fill="#005039" d="M127.862,59.157c-0.964,2.559-3.58,4.067-5.51,4.067c-2.204,0-3.399-1.441-3.996-4.395
	c-1.653,2.491-4.087,4.395-6.474,4.395c-2.894,0-5.282-2.821-5.282-7.085c0-6.495,5.189-8.726,9.23-10.955
	c1.423-0.788,2.572-0.788,2.572-3.28c0-2.886-0.186-5.772-2.665-5.772c-1.745,0-2.249,1.049-2.892,3.28
	c-0.552,2.1-1.147,4.132-2.985,4.132c-1.423,0-2.479-1.442-2.479-3.542c0-5.576,6.016-6.495,8.861-6.495
	c3.95,0,8.175,1.444,8.175,8.135v13.317c0,1.116,0,3.345,0.964,3.345c0.734,0,1.057-0.327,1.563-0.918L127.862,59.157
	L127.862,59.157z M118.403,46.43c-2.296,1.443-5.327,3.214-5.327,7.414c0,2.099,0.597,4.459,2.25,4.459
	c1.377,0,3.077-1.9,3.077-4.067V46.43L118.403,46.43z"/>
<path fill="#005039" d="M76.727,59.224c-0.458-0.854-0.458-3.807-0.458-4.921v-6.817v-1.171V32.863l-8.955,1.969v2.164
	c3.123,0.328,2.939,2.296,2.939,5.904v3.415h-0.002v7.988c0,1.114,0,4.067-0.458,4.921c-0.506,0.982-1.699,1.179-2.435,1.179v2.1
	c2.067-0.064,4.088-0.196,6.153-0.263c1.93,0.066,3.813,0.198,5.649,0.263v-2.1C78.426,60.403,77.233,60.207,76.727,59.224
	L76.727,59.224z"/>
<path fill="none" stroke="#005039" stroke-width="0.441" stroke-miterlimit="2.6131" d="M131.604,34.21
	c1.761,0,3.196,1.437,3.196,3.197s-1.436,3.197-3.196,3.197c-1.762,0-3.198-1.437-3.198-3.197S129.842,34.21,131.604,34.21
	L131.604,34.21L131.604,34.21z"/>
<path fill="#005039" d="M130.387,39.339h0.556v-1.725h0.334c0.296,0,0.479,0,0.651,0.379l0.597,1.346h0.634l-0.734-1.545
	c-0.123-0.24-0.205-0.323-0.378-0.39v-0.011c0.45-0.078,0.8-0.411,0.8-0.884c0-0.93-0.738-1.051-1.507-1.051h-0.952V39.339
	L130.387,39.339z M130.943,35.946h0.535c0.513,0,0.779,0.222,0.779,0.573c0,0.375-0.277,0.606-0.807,0.606h-0.473L130.943,35.946
	L130.943,35.946z"/>
<path fill="#005039" stroke="#005039" stroke-width="0.5" stroke-miterlimit="10" d="M5.892,82.676c0,0.763-0.352,2.911-2.226,2.911
	c-1.894,0-2.597-1.505-2.597-4.688c0-2.928,0.703-4.666,2.597-4.666c1.757,0,2.167,1.874,2.167,2.5h0.82
	c0-0.742-0.488-3.162-2.967-3.162c-2.402,0-3.437,1.912-3.437,5.291c0,3.064,0.664,5.389,3.299,5.389
	c2.636,0,3.163-2.616,3.163-3.575H5.892L5.892,82.676z M8.294,86.017h0.742v-6.483c0-1.678,0.858-3.3,2.596-3.3h0.43v-0.662h-0.43
	c-1.347,0-2.187,0.838-2.558,2.01H9.036v-1.776H8.294V86.017L8.294,86.017z M13.468,80.199c0-1.329,0.292-3.965,2.558-3.965
	c2.109,0,2.401,2.107,2.401,3.965H13.468L13.468,80.199z M19.247,80.863c0-3.301-0.781-5.291-3.183-5.291
	c-2.304,0-3.417,1.932-3.417,5.055c0,3.477,0.664,5.625,3.3,5.625c2.304,0,3.163-2.013,3.163-3.575h-0.742
	c0,0.763-0.352,2.911-2.499,2.911c-2.382,0-2.401-3.085-2.401-4.725H19.247L19.247,80.863z M26.53,78.264
	c0-1.462-0.547-2.692-2.792-2.692c-2.383,0-2.89,1.756-2.89,3.143h0.742c0-1.406,0.507-2.48,2.226-2.48
	c1.113,0,1.972,0.392,1.972,2.246c0,0.858-0.117,1.269-0.997,1.504l-2.206,0.604c-1.445,0.39-2.07,1.269-2.07,2.813
	c0,1.58,0.781,2.851,2.558,2.851c1.367,0,2.382-0.822,2.675-1.877h0.039v0.646c0,0.801,0.566,1.112,0.878,1.112
	c0.332,0,0.625-0.058,0.781-0.176v-0.586c-0.137,0.077-0.292,0.098-0.469,0.098c-0.253,0-0.449-0.196-0.449-0.682V78.264
	L26.53,78.264z M25.788,82.17c0,2.049-0.84,3.417-2.577,3.417c-1.289,0-1.875-0.86-1.875-2.187c0-1.212,0.43-1.914,1.621-2.246
	l1.504-0.41c0.761-0.214,1.035-0.274,1.289-0.683h0.039V82.17L25.788,82.17z M27.995,76.469h1.385v7.945
	c0,1.112,0.449,1.719,1.504,1.719c0.292,0,0.683-0.038,1.054-0.116v-0.666c-0.332,0.098-0.605,0.118-0.917,0.118
	c-0.43,0-0.898-0.156-0.898-1.132v-7.868h1.699v-0.664h-1.699v-3.026H29.38v3.026h-1.385V76.469L27.995,76.469z M33.676,86.017
	h0.742V75.805h-0.742V86.017L33.676,86.017z M33.676,74.067h0.742v-1.99h-0.742V74.067L33.676,74.067z M37.169,86.017h0.743v-6.541
	c0-1.776,0.878-3.242,2.44-3.242c1.269,0,2.03,0.626,2.03,2.44v7.343h0.742v-7.693c0-1.935-1.133-2.752-2.578-2.752
	c-1.386,0-2.245,0.878-2.596,1.776h-0.039v-1.543h-0.743V86.017L37.169,86.017z M45.78,80.863c0-3.478,0.938-4.629,2.578-4.629
	c1.602,0,2.401,1.504,2.401,4.471c0,2.774-0.644,4.646-2.499,4.646C46.327,85.351,45.78,83.479,45.78,80.863L45.78,80.863z
	 M51.5,75.805h-0.742v1.698H50.72c-0.39-1.192-1.21-1.932-2.538-1.932c-2.694,0-3.222,2.498-3.222,5.291
	c0,2.792,0.664,5.154,3.065,5.154c1.796,0,2.382-1.172,2.675-2.07h0.058v1.875c0,2.128-0.722,3.122-2.46,3.122
	c-1.445,0-2.109-0.818-2.109-1.872h-0.741c0,0.525,0.175,2.536,2.772,2.536c2.538,0,3.279-1.638,3.279-4.159V75.805L51.5,75.805z
	 M58.49,86.017h0.743v-13.94H58.49V86.017L58.49,86.017z M67.18,78.264c0-1.462-0.547-2.692-2.792-2.692
	c-2.383,0-2.89,1.756-2.89,3.143h0.741c0-1.406,0.508-2.48,2.227-2.48c1.113,0,1.972,0.392,1.972,2.246
	c0,0.858-0.117,1.269-0.996,1.504l-2.207,0.604c-1.445,0.39-2.069,1.269-2.069,2.813c0,1.58,0.78,2.851,2.557,2.851
	c1.367,0,2.382-0.822,2.675-1.877h0.039v0.646c0,0.801,0.565,1.112,0.878,1.112c0.332,0,0.625-0.058,0.782-0.176v-0.586
	c-0.137,0.077-0.293,0.098-0.469,0.098c-0.253,0-0.448-0.196-0.448-0.682V78.264L67.18,78.264z M66.438,82.17
	c0,2.049-0.84,3.417-2.578,3.417c-1.288,0-1.875-0.86-1.875-2.187c0-1.212,0.43-1.914,1.621-2.246l1.502-0.41
	c0.762-0.214,1.035-0.274,1.29-0.683h0.039V82.17L66.438,82.17z M74.598,78.674v-0.313c0-1.248-0.391-2.79-2.655-2.79
	c-1.62,0-2.792,0.936-2.792,2.634c0,1.309,0.645,2.051,1.914,2.559l1.503,0.606c1.132,0.448,1.522,1.112,1.522,2.088
	c0,1.133-0.624,2.129-2.128,2.129c-1.699,0-2.284-1.055-2.284-2.501v-0.332h-0.742v0.274c0,1.19,0.195,3.223,3.026,3.223
	c1.621,0,2.948-1.095,2.948-2.813c0-1.387-0.624-2.244-1.854-2.715l-1.563-0.584c-1.015-0.392-1.522-0.938-1.522-2.013
	c0-1.346,0.898-1.894,1.972-1.894c1.68,0,1.913,1.229,1.913,2.148v0.292H74.598L74.598,78.674z M75.711,76.469h1.387v7.945
	c0,1.112,0.447,1.719,1.503,1.719c0.293,0,0.683-0.038,1.054-0.116v-0.666c-0.332,0.098-0.604,0.118-0.918,0.118
	c-0.429,0-0.896-0.156-0.896-1.132v-7.868h1.698v-0.664H77.84v-3.026h-0.742v3.026h-1.387V76.469L75.711,76.469z M81.491,86.017
	h0.741V75.805h-0.741V86.017L81.491,86.017z M81.491,74.067h0.741v-1.99h-0.741V74.067L81.491,74.067z M84.984,86.017h0.743v-6.541
	c0-1.776,0.877-3.242,2.44-3.242c1.269,0,2.03,0.626,2.03,2.44v7.343h0.741v-7.693c0-1.935-1.132-2.752-2.576-2.752
	c-1.387,0-2.245,0.878-2.597,1.776h-0.039v-1.543h-0.743V86.017L84.984,86.017z M93.497,80.863c0-3.478,0.938-4.629,2.579-4.629
	c1.6,0,2.401,1.504,2.401,4.471c0,2.774-0.646,4.646-2.5,4.646C94.043,85.351,93.497,83.479,93.497,80.863L93.497,80.863z
	 M99.217,75.805h-0.74v1.698h-0.039c-0.392-1.192-1.212-1.932-2.539-1.932c-2.694,0-3.222,2.498-3.222,5.291
	c0,2.792,0.663,5.154,3.064,5.154c1.798,0,2.383-1.172,2.676-2.07h0.06v1.875c0,2.128-0.724,3.122-2.461,3.122
	c-1.445,0-2.108-0.818-2.108-1.872h-0.742c0,0.525,0.175,2.536,2.772,2.536c2.539,0,3.279-1.638,3.279-4.159V75.805L99.217,75.805z
	 M108.726,86.017l2.772-10.212h-0.819l-2.363,9.274h-0.038l-2.479-9.274h-0.82l2.87,10.212H108.726L108.726,86.017z M118.254,78.264
	c0-1.462-0.546-2.692-2.792-2.692c-2.382,0-2.89,1.756-2.89,3.143h0.742c0-1.406,0.508-2.48,2.226-2.48
	c1.113,0,1.972,0.392,1.972,2.246c0,0.858-0.117,1.269-0.995,1.504l-2.207,0.604c-1.445,0.39-2.069,1.269-2.069,2.813
	c0,1.58,0.78,2.851,2.558,2.851c1.366,0,2.383-0.822,2.675-1.877h0.039v0.646c0,0.801,0.567,1.112,0.879,1.112
	c0.331,0,0.625-0.058,0.781-0.176v-0.586c-0.137,0.077-0.293,0.098-0.469,0.098c-0.255,0-0.449-0.196-0.449-0.682V78.264
	L118.254,78.264z M117.512,82.17c0,2.049-0.839,3.417-2.576,3.417c-1.29,0-1.876-0.86-1.876-2.187c0-1.212,0.431-1.914,1.621-2.246
	l1.504-0.41c0.762-0.214,1.035-0.274,1.288-0.683h0.039V82.17L117.512,82.17z M120.636,86.017h0.742v-13.94h-0.742V86.017
	L120.636,86.017z M129.598,75.805h-0.742v6.542c0,1.776-0.879,3.24-2.44,3.24c-1.27,0-2.03-0.626-2.03-2.442v-7.34h-0.742V83.5
	c0,1.93,1.134,2.752,2.578,2.752c1.386,0,2.245-0.88,2.596-1.778h0.039v1.544h0.742V75.805L129.598,75.805z M132.156,80.199
	c0-1.329,0.293-3.965,2.558-3.965c2.109,0,2.401,2.107,2.401,3.965H132.156L132.156,80.199z M137.935,80.863
	c0-3.301-0.781-5.291-3.183-5.291c-2.304,0-3.417,1.932-3.417,5.055c0,3.477,0.664,5.625,3.3,5.625c2.305,0,3.164-2.013,3.164-3.575
	h-0.742c0,0.763-0.352,2.911-2.5,2.911c-2.381,0-2.401-3.085-2.401-4.725H137.935L137.935,80.863z"/>
</svg>
