<?xml version="1.0" encoding="utf-8"?>
<svg version="1.1" id="layer" xmlns="http://www.w3.org/2000/svg" xmlns:xlink="http://www.w3.org/1999/xlink" x="0px" y="0px"
	 width="100%" height="100%" viewBox="0 100 652 452" style="enable-background:new 0 0 width height;" xml:space="preserve">
<style type="text/css">
	.st0{clip-path:url(#SVGID_2_);fill:#FFFFFF;} <!-- changed to white fill -->
</style>
<g>
	<defs>
		<path id="SVGID_1_" d="M590.2,287.3v120.2c0,8.4,7,15.2,14.9,15.2c8.4,0,14.9-6.8,14.9-15.2V287.3c0-8.4-6.8-15.2-14.9-15.2
			C596.6,272.1,590.2,278.9,590.2,287.3 M50.8,374.1c0-13.5,12.3-21.1,29.5-21.1c12.6,0,21.7,1.7,34,4.8V389
			c-2.8,2.2-13.2,8.7-32.6,8.7C61.8,397.7,50.8,389.3,50.8,374.1 M41.8,278c-7.6,3.4-9.9,9-9.9,13.8c0,8.7,8.2,15.2,20.5,11.2
			c7.9-2.8,19.1-6.2,30.6-6.2c21.9,0,31.2,8.1,31.2,27.3v9.3c-12.9-3.1-22.5-4.7-35.7-4.7c-38,0-55.8,20.7-57,44.1v5.2
			c1.2,26.2,20.3,45.9,57.5,45.9c29.3,0,50.6-10.4,58.5-15.7c4.2-2.8,5.3-5.9,5.3-11v-73.1c0-37.9-22.2-54.5-58.2-54.5
			C67.7,269.6,50,274,41.8,278 M332.6,374.1c0-13.5,12.4-21.1,29.5-21.1c12.7,0,21.6,1.7,34,4.8V389c-2.8,2.2-13.2,8.7-32.6,8.7
			C343.6,397.7,332.6,389.3,332.6,374.1 M323.6,278c-7.6,3.4-9.9,9-9.9,13.8c0,8.7,8.2,15.2,20.5,11.2c7.9-2.8,19.1-6.2,30.6-6.2
			c21.9,0,31.2,8.1,31.2,27.3v9.3c-13-3.1-22.5-4.7-35.7-4.7c-39.3,0-57.1,22.2-57.1,46.6c0,27.5,19.1,48.6,57.6,48.6
			c29.2,0,50.6-10.4,58.5-15.7c4.2-2.8,5.3-5.9,5.3-11v-73.1c0-37.9-22.2-54.5-58.2-54.5C349.5,269.6,331.8,274,323.6,278
			 M450.6,285c-4.2,2.8-5.9,5.7-5.9,11.5v110.4c0,8.4,7,15.2,14.9,15.2c8.4,0,14.9-6.8,14.9-15.2V306.1c6.4-4,19.7-7.9,33.4-7.9
			c17.5,0,32.6,9.6,32.6,32.1v76.7c0,8.4,7,15.2,14.9,15.2c8.7,0,14.9-6.8,14.9-15.2v-78.1c0-38-20.8-59.3-61.5-59.3
			C479.3,269.6,458.7,278.8,450.6,285 M190.4,362.3c-0.8-8.7-0.5-25.3,0-32.9c1.2-20.5,11.3-31.2,32.6-31.2
			c14.6,0,28.7,5.1,34.6,8.7V385c-5.6,4.2-20.2,10.1-32.3,10.1C203.7,395.1,192.2,383.9,190.4,362.3 M257.6,235.5v42.1
			c-9.3-4.2-23.3-8.1-36.8-8.1c-36.2,0-57,21.6-60.1,56.5c-0.8,10.1-0.8,30.1,0,39.9c3.1,34.5,26.1,57.9,64.1,57.9
			c27.2,0,50-12.1,57.3-17.5c4.5-3.1,5.4-6.2,5.4-11.2V235.5c0-8.4-6.5-15.2-14.9-15.2C264.4,220.4,257.6,227.1,257.6,235.5
			 M588.2,235.6c0,9.3,7,17.2,16.9,17.2c9.3,0,16.6-7.9,16.6-17.2c0-9.3-7.3-16.6-16.6-16.6C595.2,219,588.2,226.3,588.2,235.6"/>
	</defs>
	<clipPath id="SVGID_2_">
		<use xlink:href="#SVGID_1_"  style="overflow:visible;"/>
	</clipPath>
	
	<polygon class="st0" points="26.2,475.9 639.5,422.3 617.1,166.9 3.9,220.6 	"/>
</g>
</svg>
