<svg width="100%" height="100%" viewBox="0 0 172 64" fill="none" xmlns="http://www.w3.org/2000/svg">
<path d="M64.8311 0H63.3428V64H64.8311V0Z" fill="#FFFFFF"/>
<path d="M51.414 31.9999C51.414 25.1782 49.0003 19.3513 44.173 14.519C39.3507 9.70165 33.5312 7.29297 26.7144 7.29297C19.8878 7.29297 14.0633 9.70165 9.24093 14.519C4.41365 19.3513 2 25.1782 2 31.9999C2 38.8167 4.41365 44.6387 9.24093 49.466C14.0633 54.2883 19.8878 56.6995 26.7144 56.6995C33.5312 56.6995 39.3507 54.2883 44.173 49.466C49.0003 44.6387 51.414 38.8167 51.414 31.9999ZM42.4614 16.2158C46.8174 20.5767 48.9953 25.8356 48.9953 31.9925C48.9953 38.1494 46.8174 43.4058 42.4614 47.7618C38.1104 52.1178 32.8564 54.2958 26.6995 54.2958C20.5426 54.2958 15.2862 52.1178 10.9302 47.7618C6.57426 43.4058 4.39628 38.1494 4.39628 31.9925C4.39628 25.8356 6.57426 20.5767 10.9302 16.2158C15.2862 11.8598 20.5426 9.6818 26.6995 9.6818C32.8564 9.6818 38.1104 11.8598 42.4614 16.2158ZM26.7219 20.8148L25.1293 23.9255L34.4986 43.133H38.1377L26.7219 20.8148ZM24.3628 32.0967L22.6958 28.6809L15.2986 43.133H18.9674L24.3628 32.0967Z" fill="#FFFFFF"/>
<path d="M124.434 50.9107C124.434 49.9929 124.143 49.2066 123.563 48.5517C122.987 47.8968 122.293 47.5693 121.479 47.5693C120.656 47.5693 119.954 47.8968 119.373 48.5517C118.798 49.2066 118.51 49.9929 118.51 50.9107C118.51 51.8335 118.798 52.6224 119.373 53.2772C119.73 53.6791 120.135 53.9594 120.586 54.1182C120.864 54.2124 121.162 54.2596 121.479 54.2596C121.797 54.2596 122.094 54.2124 122.372 54.1182C122.814 53.9594 123.211 53.6791 123.563 53.2772C124.143 52.6224 124.434 51.8335 124.434 50.9107ZM122.945 48.9982C123.357 49.534 123.563 50.1765 123.563 50.9256C123.563 51.6797 123.357 52.3247 122.945 52.8605C122.538 53.3963 122.047 53.6642 121.472 53.6642C120.896 53.6642 120.4 53.3963 119.983 52.8605C119.577 52.3247 119.373 51.6797 119.373 50.9256C119.373 50.1765 119.577 49.534 119.983 48.9982C120.4 48.4624 120.896 48.1945 121.472 48.1945C122.047 48.1945 122.538 48.4624 122.945 48.9982ZM109.215 47.6959V54.1182H109.982V51.3721H111.09C111.567 51.3721 111.877 51.64 112.021 52.1758L112.586 54.1182H113.442L112.847 52.027C112.698 51.516 112.418 51.2059 112.006 51.0968C112.269 51.0075 112.492 50.8958 112.676 50.7619C113.053 50.4741 113.253 50.0872 113.278 49.601C113.268 48.3855 112.671 47.7504 111.485 47.6959H109.215ZM109.982 48.2614H111.016C111.859 48.2664 112.311 48.6732 112.37 49.4819C112.425 50.2807 111.988 50.7073 111.061 50.7619H109.982V48.2614ZM103.023 48.4996L103.299 47.8447C102.024 47.4627 100.92 47.485 99.9871 47.9117C99.0644 48.3433 98.4839 49.0949 98.2457 50.1665C98.0919 50.8512 98.1143 51.4788 98.3127 52.0493C98.5062 52.6199 98.8659 53.116 99.3918 53.5377C99.9177 53.9594 100.533 54.1976 101.237 54.2521C101.957 54.2968 102.669 54.1504 103.373 53.8131V50.7842H101.379V51.4019H102.629V53.3442C101.959 53.5774 101.342 53.6245 100.776 53.4856C100.181 53.3368 99.7242 52.992 99.4067 52.4512C99.0594 51.8559 98.9304 51.2109 99.0197 50.5163C99.109 49.8714 99.3447 49.3678 99.7267 49.0056C100.575 48.2069 101.674 48.0382 103.023 48.4996ZM144.289 50.9479C144.571 50.6354 144.718 50.1938 144.728 49.6233C144.718 48.3929 144.117 47.7504 142.927 47.6959H140.664V54.1182H141.431V51.5656H142.532C143.336 51.5557 143.921 51.3498 144.289 50.9479ZM141.431 50.9479V48.2614H142.458C143.291 48.2664 143.745 48.6633 143.82 49.4521C143.869 50.3848 143.5 50.8834 142.711 50.9479H141.431ZM134.77 51.5656V47.6959H133.848V51.841C133.734 52.9771 133.208 53.5675 132.27 53.6121C131.402 53.5675 130.916 52.9771 130.811 51.841V47.6959H129.963V51.5879C129.983 52.6596 130.266 53.4112 130.811 53.8428C130.955 53.9569 131.119 54.0487 131.303 54.1182C131.58 54.2174 131.903 54.267 132.27 54.267C132.662 54.267 133.009 54.2174 133.312 54.1182C133.51 54.0487 133.689 53.9569 133.848 53.8428C134.443 53.4062 134.751 52.6472 134.77 51.5656Z" fill="#FFFFFF"/>
<path d="M85.0512 24.335H83.0122L76.7759 39.6652H78.867L80.4819 35.6764H87.3136L88.9359 39.6652H91.2801L85.0512 24.335ZM83.8754 27.334V27.2298L86.6363 34.0168H81.1591L83.8754 27.334ZM111.686 39.6652V24.335H108.873L104.951 36.9489L101.029 24.335H98.2159V39.6652H100.076V27.855L103.894 39.6652H105.829L109.632 27.855V39.6652H111.686ZM122.796 30.9582V26.1805H129.762V24.335H120.608V39.6652H130.06V38.0131H122.796V32.6922H129.368V30.9582H122.796ZM138.134 24.335H135.76L140.887 33.1833V39.6652H143.083V32.7666L148.21 24.335H145.874L142.056 31.1145L138.134 24.335ZM162.112 35.6764L163.734 39.6652H166.078L159.849 24.335H157.81L151.581 39.6652H153.665L155.287 35.6764H162.112ZM158.681 27.334V27.2224L161.442 34.0168H155.957L158.681 27.334Z" fill="#FFFFFF"/>
</svg>
