<?xml version="1.0" encoding="utf-8"?>
<!-- Generator: Adobe Illustrator 26.0.3, SVG Export Plug-In . SVG Version: 6.00 Build 0)  -->
<svg version="1.0" id="katman_1" xmlns="http://www.w3.org/2000/svg" xmlns:xlink="http://www.w3.org/1999/xlink" x="0px" y="0px"
	 width="100%" height="100%" viewBox="0 50 372 185" style="enable-background:new 0 0 372 265;" xml:space="preserve">
<style type="text/css">
	.st0{clip-path:url(#SVGID_00000043453517762616115690000017710113239996076953_);}
	.st1{fill:#FFFFFF;}
</style>
<g>
	<defs>
		<rect id="SVGID_1_" x="41" y="85.3" width="289.8" height="94.3"/>
	</defs>
	<clipPath id="SVGID_00000181779728740977227540000018431333073846209420_">
		<use xlink:href="#SVGID_1_"  style="overflow:visible;"/>
	</clipPath>
	<g style="clip-path:url(#SVGID_00000181779728740977227540000018431333073846209420_);">
		<path class="st1" d="M49.5,124.3c8.3-15.4,22.7-32.2,39.7-37.8c3.5-0.9,8.1-1.8,11.2,0.5c2.7,2,3.1,5.5,2.5,8.7
			c-0.8,3.7-3.4,8.4-7.6,9c-0.8,0-1.4-0.3-1.9-0.8c-1.1-1.1-1-2.6-0.8-4.1c0.7-2.9,3.4-6.1,6.6-6.5c0.5-0.3,0.3-1,0.2-1.5
			c-0.4-0.7-0.9-1.2-1.7-1.3c-3.4-0.4-6,1.7-8.6,3.5c-9.9,8-17.1,18.2-23.1,28.4c-4.9,9.2-9.1,18.6-10.4,29.4
			c-0.6,7.8,1.9,15.4,8.8,19.1c7.5,4,17.2,1.3,24.7-0.8l6.9-2.1l13.3-3.9c12.6-3.7,28.3-4.5,40.6,0.4c7.4,3.1,15.1,7.3,19.9,14.6
			c0,0.2,0,0.4-0.2,0.4c-10.5-2.9-24.2-5.7-34.6-0.7l-0.5-0.1c-3.2-5.1-8.5-7.9-14-9c-17.7-1.7-32.2,6.7-48.8,8.7
			c-8.4,0.8-17.5,0.5-23.3-5.9c-9.3-9.3-8.2-25.6-3.8-36.8C45.7,131.9,47.5,128.1,49.5,124.3z"/>
		<path class="st1" d="M73.9,129.8c4.4-8.1,11.1-17.9,20.4-20.9c2.5-0.6,5.2-0.3,7.1,1.3c4,4,2.4,10.8,1.1,15.5
			c0,0.3,0.2,0.6,0.5,0.6c3.6-0.1,6.4-1.8,9-4.2c5.5-6.2,11.5-14.3,20.4-13.3c1.7,0.3,3.3,1.2,4.2,2.8c2.3,4.5,0,9.5-3.1,13
			c-1.2,1.1-2.7,2-4.4,1.5c-0.7-0.2-1.3-0.9-1.5-1.6c-0.6-3.2,1.2-6.1,3.8-7.8c0.7-0.7,2.9-0.2,2.3-1.9c-0.5-0.7-1.1-0.7-1.9-0.7
			c-4.4,1.8-7.2,6.3-9.8,10c-3.2,5-5.8,10.3-7.5,15.9c-0.5,2-1,4.7,0.1,6.5c0.9,1.2,2.3,1.7,3.8,1.3c4.3-1.7,8.1-5.2,11.4-8.8
			c7.6-9.1,11.6-20.3,21.7-27.7c3.1-2.2,7.6-3.8,11.4-1.8c0.6,0.2,1.1,1,1.9,0.7c0.6-0.6,1-1.9,2.3-1.6c2.8,0,6-0.1,8.9,0.2l0.2,0.3
			l-0.8,1.9l-15.7,31.9c-0.2,0.3-0.2,0.8-0.1,1.2c0.3,0.5,0.8,0.4,1.3,0.3c2.3-1.3,4-3.7,5.6-5.7c1.4-1.9,2.6-3.9,3.6-6
			c0.4-0.6,0.9-1.4,1.8-1.3c0.9,0.1,2-0.3,2.6,0.4c-1,2.7-2.6,5.1-4,7.6c-4.3,6.6-9.8,14.2-17.7,16.2c-1.3,0.1-2.9,0.3-3.9-0.7
			c-1.5-1.2-1.6-3-2-4.6c-0.2-0.2-0.4-0.2-0.6-0.2c-3.3,3-6.8,6-11.5,5.4c-1.5-0.3-2.8-1.4-3.5-2.8c-1.2-2.3-0.6-5.4-0.7-8
			c-0.1-0.3-0.5-0.2-0.6-0.1c-5.1,5-10.6,9.6-17.4,10.8c-3.1,0.4-5.9-0.6-8-2.8c-5.1-6.6-1.1-15.4,1.6-21.8c0.1-0.3,0.1-0.7-0.3-0.8
			c-1.8,0.1-3.6,0.4-5.4,0.7l-0.6,0.7c-4.1,7.6-8.6,15.7-16,21.4c-3.1,2.2-7.6,3.7-11.2,1.7c-3.7-2.6-4.1-7.2-3.6-11.4
			C70,138.6,71.8,134.2,73.9,129.8z M85.6,129.5c-2.2,4.4-4.4,8.8-4.4,13.9c0.2,1,0.8,2.1,1.9,2.3c1.1,0.3,2.1-0.3,3-0.9
			c4.2-3.5,7.1-8.4,9.5-13.1c0.2-0.5,0.5-1,0.3-1.5c-2.5-1-5-2.7-6.9-4.9l-0.4-0.1c-0.4,0.1-0.5,0.5-0.8,0.7L85.6,129.5z
			 M92.1,120.6c0.1,2.3,2.3,4.3,4.3,5.1c0.5,0.2,1.3,0.5,1.7-0.1c0.8-1.5,1.2-3.1,1.6-4.7c0.4-2.1,0.7-4.9-1.3-6.3
			c-0.7-0.4-1.7-0.4-2.4-0.1C93.7,115.7,92.1,118,92.1,120.6z M144,138.4c-0.6,1.9-1.5,4-0.9,6.1c0.2,0.4,0.6,0.7,1.1,0.8
			c1.7,0,2.9-1.5,4-2.7c5-7,8.9-14.5,12.4-22.2c0.6-1.6,1.5-3.1,1.5-4.9c0-0.4-0.4-0.7-0.7-0.8c-0.8-0.3-1.5,0.2-2.1,0.5
			c-6.8,5.2-10.5,12.7-13.8,19.8L144,138.4z"/>
		<path class="st1" d="M176.7,118.8c1.5-3,2.8-6.1,4.7-8.9c0.8-0.8,2-0.8,3-0.9l7.5,0.1l0.3,0.3c-1.3,3-2.7,6-4.2,8.9
			c-0.4,0.8-1.2,1.5-2.1,1.6c-3.1,0.1-6.3,0.2-9.2,0C176.4,119.5,176.6,119.1,176.7,118.8z"/>
		<path class="st1" d="M184.3,134.1c5.2-10.9,11.6-21.3,20.5-30.5c8.7-8.7,18.1-15.7,29.5-17.8c3.1-0.4,6.6-0.2,8.9,1.9
			c0.5,0.4,1,0.8,1.6,0.5c8.2-3.3,19.5-4.4,27.7-0.3c4.7,2.3,9.2,5.3,13.8,8.1c0.6,0.3,0.3,0.9,0,1.3c-2.6,2.9-4.8,5.9-7.1,8.9
			c-0.3,0.3-0.7,0.2-1,0l-12-8.3c-5.6-3.8-12.1-6.5-19.4-5.3c-0.8,0.4-0.4,1.4-0.5,2.2c0.2,7.5-2.5,14-6.1,20
			c-2.9,4.2-6.2,8.5-11.1,9.9c-2.1,0.5-4.2-0.2-5.5-1.9c-3.6-5.4-0.4-12.1,2.2-16.9c3-5.3,7.7-10.2,12.7-14c0.1-0.2,0.3-0.4,0.2-0.6
			c-0.5-0.5-1.3-0.2-2-0.1c-8.2,2.7-14.7,9.9-20.7,16.8c-10.8,13.2-18.9,27.6-23.6,43.4c-1.4,5.9-3.4,15,2.7,19.2
			c5.3,2.9,10.4-0.8,14.4-4.2c6.1-6.2,10.2-13.3,11.8-21.4c0.3-2.4,0.9-5.7-1.3-7.4c-2-0.9-3.6,0.8-5,2.1c-3.1,3.7-4.4,8.2-5,13
			c-1.4,1.1-3,1.9-4.5,3c-2.8,1.9-5.5,4.5-7.7,7c-0.3,0.1-0.3-0.2-0.4-0.4c-0.3-8.9,2.9-16.5,7.7-23.3c3.9-4.5,8.9-8.4,14.9-6.9
			c2.6,0.7,4.4,3.5,4.9,6c1,8.3-2.5,15.6-6.3,22.4c-6.1,9.5-15.7,19.2-27.9,18c-4.7-0.3-9-3.5-11-7.8c-4.6-9.2-1.4-20.9,1.7-29.8
			L184.3,134.1z M225.7,118.3c0.1,1,0.5,2.1,1.6,2.5c2.1,0.6,3.7-0.9,5.2-2.1c5.5-5.8,8.9-12.6,9.8-20.4c0-1.1,0.4-2.6-0.3-3.6
			c-0.5-0.1-1,0.1-1.3,0.4c-3.7,2.5-7.2,6.1-9.8,9.8C228.3,108.9,225.8,113.1,225.7,118.3z"/>
		<path class="st1" d="M233.4,144.2c4.4-5.8,10.3-12.2,17.7-12.7c1.9,0,3.5,0.8,4.7,2.4c3.2,4.7,0.5,10.7-0.7,15.4
			c-0.1,0.4,0.2,0.7,0.5,0.8c1.5,0.2,3.3,0,4.6-0.7l0.6-0.7c5.3-15.2,13.3-29.3,22.7-42.8c5.9-7.8,13.4-15.8,22.2-19.6
			c2.1-0.7,5.1-1.6,7-0.1c2.2,1.8,1.6,4.9,1,7.4c-0.2,2.1-2.6,2.4-4.2,2.9c-0.1,0-0.2,0-0.2-0.1c0-1.4,0.8-2.6,1-3.9
			c0.1-0.7,0.2-1.3-0.1-2c-0.4-0.7-1.2-0.5-1.8-0.3c-3,1.4-5.3,4.1-7.6,6.6c-8.5,9.8-14.6,20.7-20.2,31.7c-1.8,3.8-3.8,7.6-5.3,11.6
			c0,0.2,0,0.4,0.2,0.5c1.3,0,2.1-1.4,3.1-2.1c7.5-6.8,13.5-14.5,19.1-22.4c1.2-0.6,2.6-0.6,3.9-0.7l0.3,0.1c-0.1,1.1-1,1.9-1.5,2.9
			c-6.2,9-13.3,17.6-21.9,25.4l-6.2,5.1c-1.3,1.1-1.4,2.9-2,4.4c-1.2,3.9-2.4,8-2.6,12.3c0,0.7,0.3,1.4,0.9,1.8
			c1.6,0.7,3-0.8,4.1-1.9c8.4-9.7,12.1-21.7,22.4-30.4c3.4-2.7,7.8-4.9,12.2-2.9c0.8,0.3,1.3,1.3,2.3,0.8c0.7-0.5,0.7-1.5,1.6-1.4
			c3,0,6.2-0.1,9.1,0.1c0.3,0.2,0.1,0.6,0,0.9l-2.1,4.2l-12.9,26c-0.6,1.2-1.4,2.4-1.3,3.8c0.2,0.6,0.8,0.6,1.3,0.5
			c2.4-1.3,4.2-3.5,5.8-5.8c1.6-2.2,2.8-4.5,4.4-6.8c0.8-0.4,1.9-0.2,2.8-0.1c0.5,0.5-0.2,1.1-0.3,1.7c-3.8,7.8-9.1,16.4-17.3,20.7
			c-1.9,1-4.6,1.8-6.7,0.7c-1.7-1.2-1.5-3.3-2.3-4.9c-0.2-0.2-0.5-0.2-0.7-0.1c-3.4,3.1-7.1,6.5-11.9,5.2c-3-1.4-3.3-4.8-3.5-7.8
			c-0.2-0.1-0.1-0.3-0.3-0.5l-0.4,0.2c-3.3,4-7.6,9-13.2,8.5c-2.1-0.2-4-2.2-4.7-4.1c-2-6.2,0.1-13.1,1.5-19.1
			c0-0.3-0.4-0.7-0.7-0.7l-4.7,0.1l-0.8,0.9c-3.5,6.8-7.3,13.4-13.3,19.1c-3.1,2.8-7,5.1-11.3,3.8c-3.6-1.5-4.5-5.4-4.5-9.1
			C224.2,159.6,228.3,151.7,233.4,144.2z M234.6,165c0.1,1.3,0.7,2.6,2.1,3.1c0.9,0.3,1.8-0.1,2.6-0.5c4.4-3.3,7-8.3,9.4-12.9
			c0.2-0.5,0.4-1.2-0.2-1.5c-2.3-1.2-4.5-3-6.3-5c-0.2-0.2-0.7-0.3-0.9-0.1c-1.7,2.2-2.7,4.7-3.9,7.1
			C236.1,158.3,234.7,161.4,234.6,165z M245.7,143.6c0.1,2.3,2,4.5,4.2,5.3c0.4,0.2,1.2,0.3,1.5-0.2c1.3-3,2.5-6.4,1.9-9.8
			c-0.3-0.8-1-1.6-1.8-1.9c-0.8-0.2-1.7,0-2.4,0.4C246.9,138.7,245.8,141.1,245.7,143.6z M287.9,164c-0.1,1.1-0.4,2.5,0.5,3.3
			c0.5,0.5,1.2,0.5,1.8,0.3c2.3-1.2,3.7-3.6,5.1-5.6c4.6-7.2,8-14.9,11.2-22.7c0.1-0.7,0.3-1.6-0.3-2.1c-1.9-0.9-3.3,1.2-4.7,2.2
			c-6.1,6.1-9.3,13.4-12.4,20.8L287.9,164z"/>
		<path class="st1" d="M296.9,106.9l4.1-5.3l0.6-0.5c11.8-0.2,21-7.2,29.3-15.5c0,1.1-0.5,2.1-0.9,3.1c-5.4,12.8-18.6,24-32.9,24.2
			l-3.4-0.1c-0.6-0.2-0.2-0.8,0-1.1L296.9,106.9z"/>
		<path class="st1" d="M311.7,174.5c0-1.6,1.2-2.8,2.8-2.8c1.5,0,2.7,1.2,2.7,2.8c0,1.6-1.2,2.8-2.7,2.8
			C312.9,177.3,311.7,176.1,311.7,174.5z M314.5,177.9c1.8,0,3.4-1.4,3.4-3.4c0-1.9-1.6-3.4-3.4-3.4c-1.9,0-3.4,1.4-3.4,3.4
			C311,176.4,312.6,177.9,314.5,177.9z M313.8,174.8h0.7l1,1.7h0.7l-1.1-1.7c0.6-0.1,1-0.4,1-1.1c0-0.8-0.5-1.1-1.4-1.1h-1.5v3.9
			h0.6V174.8z M313.8,174.3v-1.2h0.8c0.4,0,0.9,0.1,0.9,0.6c0,0.6-0.4,0.6-1,0.6H313.8z"/>
	</g>
</g>
</svg>
