<?xml version="1.0" encoding="UTF-8"?>
<svg id="Layer_2" data-name="Layer 2" xmlns="http://www.w3.org/2000/svg" viewBox="0 0 168.49 114.68">
  <defs>
    <style>
      .cls-1 {
        fill: #00c8e8;
      }

      .cls-2 {
        fill: #60269e;
      }
    </style>
  </defs>
  <g id="Calque_1" data-name="Calque 1">
    <g>
      <g>
        <path class="cls-2" d="m168.49,95.9v6.46c0,1.63-.92,2.52-2.33,2.52s-2.28-.89-2.28-2.52v-20.72c0-1.65.86-2.52,2.28-2.52s2.33.87,2.33,2.52v14.26Z"/>
        <path class="cls-2" d="m163.88,74.81c0-1.47.86-2.32,2.28-2.32s2.33.85,2.33,2.32-.92,2.31-2.33,2.31-2.28-.86-2.28-2.31"/>
        <path class="cls-2" d="m109.8,100.62c-1.49,3-4.46,4.57-8.49,4.57-5.94,0-9.55-3.73-9.55-9.99v-19.59c0-1.65.9-2.52,2.31-2.52s2.3.87,2.3,2.52v3.82s10.03,0,10.03,0c1.53,0,2.33.83,2.33,2.14s-.8,2.12-2.33,2.12h-10.03v11.67c0,3.58,1.91,5.57,5.14,5.57,2.12,0,3.55-.95,4.61-2.63.64-1.01,1.92-1.26,2.93-.63s1.3,1.9.73,2.94Z"/>
        <path class="cls-2" d="m144.73,81.64c0-1.64.86-2.52,2.28-2.52s2.33.87,2.33,2.52v1.95c1.75-2.94,4.72-4.63,8.75-4.63,1.48,0,2.48.83,2.48,2.31s-1.01,2.26-2.48,2.26c-5.57,0-8.75,3.15-8.75,10.04h0v8.78c0,1.62-.92,2.52-2.33,2.52s-2.28-.91-2.28-2.52v-20.72Z"/>
        <path class="cls-2" d="m136.76,79.12c-1.42,0-2.31.87-2.31,2.52v1.49c-2.07-2.68-5.46-4.33-9.71-4.33-9.52,0-12.57,7.49-12.57,13.2s3.05,13.2,12.57,13.2c4.24,0,7.64-1.66,9.71-4.34v1.5c0,1.61.9,2.52,2.31,2.52s2.3-.91,2.3-2.52v-20.72c0-1.65-.88-2.52-2.3-2.52Zm-11.17,21.82c-5.2,0-8.7-3.68-8.7-8.94s3.5-8.94,8.7-8.94,8.86,3.68,8.86,8.94-3.66,8.94-8.86,8.94Z"/>
        <path class="cls-2" d="m26.89,102.27v-20.63c0-1.65-.92-2.52-2.33-2.52s-2.28.87-2.28,2.52v1.33c-2.07-2.61-5.46-4.17-9.71-4.17-9.52,0-12.57,7.3-12.57,12.86s3.05,12.86,12.57,12.86c4.24,0,7.64-1.56,9.71-4.17v1.91c0,4.39-2.57,7.95-8.68,8.09-4.55.1-6.89-1.67-7.86-2.63-.91-.89-2.22-1.07-3.18-.3s-1.01,2.12-.38,2.99,3.65,4.32,11.4,4.26c9.38-.08,13.31-5.67,13.31-12.41Zm-13.47-1.89c-5.2,0-8.7-3.59-8.7-8.71s3.5-8.71,8.7-8.71,8.86,3.59,8.86,8.71-3.66,8.71-8.86,8.71Z"/>
        <path class="cls-2" d="m66.68,82.85h0c1.91-2.58,5.09-4.05,9.12-4.05,7.16,0,10.93,4.1,10.93,11.73v11.83c0,1.63-.92,2.52-2.33,2.52s-2.28-.89-2.28-2.52v-11.36c0-5.21-2.55-7.94-7.43-7.94s-8.01,3.37-8.01,8.89v10.41c0,1.63-.92,2.52-2.33,2.52s-2.28-.89-2.28-2.52v-20.72c0-1.65.86-2.52,2.28-2.52s2.33.87,2.33,2.52v1.21Z"/>
        <path class="cls-2" d="m44.78,78.8h0c-10.2,0-13.47,7.49-13.47,13.2s3.54,13.2,13.74,13.2h0c4.51,0,8.27-1.68,10.66-4.57.73-.96.58-2.23-.38-2.99s-2.4-.61-3.18.3c-1.5,1.75-3.98,3-7.11,3-4.83,0-8.17-2.79-8.86-7.15h18.62c1.86,0,2.97-1.05,2.97-2.89v-.11c0-6.73-5.57-11.99-12.99-11.99Zm-8.49,10.88c.85-4,4.14-6.62,8.49-6.62s7.64,2.63,8.49,6.62h-16.97Z"/>
      </g>
      <path class="cls-1" d="m82.96,67.29c-4.66.02-8.62-6.33-8.62-15.37,0-8.08,2.28-14.49,8.22-20.66,4.98-5.18,12.5-8.58,18.04-8.63,7.04-.06,9.92,3.31,9.92,8.1,0,5.28-3.99,10.79-9.9,14.79-9.11,6.16-15.04,8.17-23.77,8.17-10.24,0-16.18-5.59-16.18-14.34,0-10.14,8.24-19.42,19.58-26.64C90.44,6.21,107.19.57,117.87.01c2.63-.14,4.13,1.08,4.24,3.21.13,2.57-1.56,4.01-5.07,4.19-11.94.62-23.93,4.63-33.33,10-10.68,6.1-17.99,14.34-17.99,20.72,0,4.53,3.08,7.13,10.25,7.13,7.64,0,13.88-3.24,18.8-6.6,5.14-3.51,7-5.69,7-7.35,0-1.05-.68-1.72-2.45-1.72-2.58,0-6.11,1.62-8.81,4.39-3.3,3.39-5.24,7.5-5.24,12.79,0,10.18,5.22,9.1,5.22,13.76,0,3.33-4.02,6.76-7.53,6.77Z"/>
    </g>
  </g>
</svg>