<?xml version="1.0" encoding="UTF-8"?>
<svg xmlns="http://www.w3.org/2000/svg" xmlns:xlink="http://www.w3.org/1999/xlink" version="1.1" id="Layer_1" x="0px" y="0px" width="132px" height="39px" viewBox="0 0 132 39" xml:space="preserve">
<g>
	<g>
		<path fill="#B70021" d="M107.9,29.5c-1.2,6.5-5.8,9.4-11.5,9.4c-6.6,0-12.9-5.3-12.9-12.5c0-7.6,5-14.6,12.7-14.6    c6.6,0,11.6,4.5,11.6,11.5H89.5v2.7c0,6.4,0.8,11.6,7.9,11.6c4.1,0,8.3-3.2,9-8H107.9L107.9,29.5z M101.9,21.4v-2.2    c0-4.7-2.7-6.1-5.9-6.1c-3.9,0-5.6,3.6-5.8,4.1c-0.4,1.2-0.6,2.7-0.6,4.3H101.9L101.9,21.4z"></path>
		<polygon fill="#B70021" points="27.4,18.3 27.4,3.1 23.1,3.1 23.1,1.6 36.9,1.6 36.9,3.1 32.7,3.1 32.7,36.5 36.9,36.5 36.9,38     23.1,38 23.1,36.5 27.4,36.5 27.4,19.9 11.6,19.9 11.6,36.5 15.9,36.5 15.9,38 2,38 2,36.5 6.3,36.5 6.3,3.1 2,3.1 2,1.6     15.9,1.6 15.9,3.1 11.6,3.1 11.6,18.3 27.4,18.3   "></polygon>
		<path fill="#B70021" d="M39.3,38v-1.5h3.6V13.9h-3.6v-1.5h1.4c2.4,0,4.9-0.1,7.2-0.6v24.8h3.5V38H39.3L39.3,38z"></path>
		<path fill="#B70021" d="M57.7,13.9h-3.6v-1.5h1.4c1.2,0,2.5,0,3.6-0.1c1.2-0.1,2.5-0.3,3.6-0.5v6.9h0.1c1.8-4.1,4.3-6.9,9.1-6.9    c2.3,0,7.7,0.5,7.7,6.5v18.3h3.5V38H71.2v-1.5h3.4V19c0-4.7-1.5-5.4-4.1-5.4c-4.4,0-7.8,6-7.8,10.9v12h3.5V38H54.1v-1.5h3.6V13.9    L57.7,13.9z"></path>
		<path fill="#B70021" d="M127.9,12.4v7.2h-1.4c-1-3.8-3.2-6.4-7-6.6c-5.3-0.1-6.1,3.9-6.1,4.7c0,1.9,0.5,2.8,10.4,4.8    c5,1,6.7,3.3,6.7,7.4c0,5.6-4.2,8.9-9.3,8.9c-2.7,0-5.6-1.1-7.4-3.2l-1.4,2.3h-1.4v-8.5h1.5c1.2,4.7,4.4,8.1,9.2,8.1    c2.9,0,6.3-2.2,6.3-5.6c0-2.5-3.6-3.7-8.9-5c-4.3-1-8-1.6-8-7.2c0-2.7,1.7-8,8.7-8c2,0,4,0.8,6,2.4l1.2-1.7H127.9L127.9,12.4z"></path>
		<polygon fill="#B70021" points="42.8,1.6 47.9,1.6 47.9,6.5 42.8,6.5 42.8,1.6   "></polygon>
	</g>
</g>
</svg>
